<svg width="64" height="64" viewBox="0 0 64 64" fill="none" xmlns="http://www.w3.org/2000/svg">
<path fill-rule="evenodd" clip-rule="evenodd" d="M24.4621 32.718H24.3856L23.1569 37.6329L23.1559 37.6368C22.5887 39.9252 22.686 42.1964 23.9894 43.9367C25.3083 45.6975 27.4528 46.374 29.7552 46.374C32.0884 46.374 34.1979 45.701 35.8895 44.3063C37.5701 42.9206 38.6861 40.9487 39.2765 38.6069L40.9421 31.8765C41.3707 30.2153 41.3637 28.4663 40.5326 27.0363C40.3869 26.7855 40.2228 26.5562 40.0425 26.348H41.659L43.6626 18.2H28.0916L24.4621 32.718ZM26.3212 33.528L29.6532 20.2H41.1112L40.0912 24.348H33.3932L32.4412 28.054H32.5772C33.3161 27.5679 34.066 27.2152 34.7763 27.0023C35.308 26.843 35.8174 26.762 36.2832 26.762C38.6632 26.762 39.7172 28.632 39.0032 31.386L37.3372 38.118C36.3172 42.164 33.6312 44.374 29.7552 44.374C25.8452 44.374 24.1112 42.096 25.0972 38.118L25.9472 34.718H30.7072L29.7552 38.492C29.4832 39.58 29.7892 40.226 30.6732 40.226C31.5232 40.226 32.2032 39.614 32.4752 38.492L34.1412 31.76C34.4132 30.672 34.0392 30.162 33.3932 30.162C32.8492 30.162 32.1012 30.57 31.6252 31.352L31.0812 33.528H26.3212ZM32.2318 31.0995C32.2321 31.0993 32.2322 31.1051 32.231 31.1177C32.2308 31.106 32.2314 31.0997 32.2318 31.0995Z" fill="white"/>
</svg>
