<svg viewBox="0 0 12 12" fill="none"
  xmlns="http://www.w3.org/2000/svg">
  <path d="M5.06951 0.660963L4.08981 3.50154C3.9914 3.79567 3.79567 3.99139 3.50154 4.08981L0.660963 5.06951C-0.220321 5.36364 -0.220321 6.63748 0.660963 6.93049L3.50154 7.91019C3.79567 8.0086 3.99139 8.20433 4.08981 8.49846L5.06951 11.339C5.36364 12.2203 6.63748 12.2203 6.93049 11.339L7.91019 8.49846C8.0086 8.20433 8.20433 8.00861 8.49846 7.91019L11.339 6.93049C12.2203 6.63636 12.2203 5.36252 11.339 5.06951L8.49846 4.08981C8.20433 3.9914 8.00861 3.79567 7.91019 3.50154L6.93049 0.660963C6.63636 -0.220321 5.36252 -0.220321 5.06951 0.660963Z" fill="#18191C" fill-opacity="0.7"/>
</svg>
