<svg width="64" height="64" viewBox="0 0 64 64" fill="none" xmlns="http://www.w3.org/2000/svg">
<path fill-rule="evenodd" clip-rule="evenodd" d="M33.9216 29.8184C34.5959 29.3746 34.9621 28.5694 35.2814 27.2721L35.6554 25.7421C35.9274 24.5861 35.6214 23.9741 34.7374 23.9741C33.8534 23.9741 33.1734 24.5861 32.8674 25.7421L32.2214 28.3601H27.4614L28.0394 26.0481C29.0254 22.1381 31.8814 19.8601 35.7914 19.8601C39.7014 19.8601 41.3334 22.0701 40.3474 26.0481L40.1774 26.6941C39.6824 28.6948 38.737 30.0948 37.6751 30.9399C36.9865 31.4879 36.2489 31.8025 35.5534 31.8961L35.4514 32.2021C35.5004 32.207 35.549 32.2132 35.5971 32.2208C35.9121 32.2703 36.2072 32.3769 36.4718 32.5422C36.8104 32.7538 37.099 33.0615 37.3152 33.4687C37.7997 34.3814 37.9202 35.794 37.4234 37.7441L37.2534 38.3901C36.3354 42.1301 33.5814 44.3401 29.7054 44.3401C25.7614 44.3401 24.0274 42.0621 25.0134 38.1521L25.5914 35.8401H30.3514L29.7054 38.4581C29.3994 39.6141 29.7394 40.1921 30.6234 40.1921C31.5074 40.1921 32.2214 39.6141 32.4934 38.4581L32.8674 36.9281C33.2237 35.5241 33.2958 34.7013 32.7972 34.2766C32.6863 34.1822 32.5472 34.1074 32.3767 34.0503C32.07 33.9476 31.6617 33.9021 31.1334 33.9021H30.3514L31.2694 30.2641H31.9494C32.0429 30.2641 32.1335 30.2626 32.2214 30.2594C32.9529 30.2334 33.498 30.0972 33.9216 29.8184ZM29.1825 30.3601H24.8999L26.1001 25.5591C26.684 23.2439 27.8554 21.2941 29.5714 19.9247C31.291 18.5522 33.4361 17.8601 35.7914 17.8601C38.0737 17.8601 40.2135 18.509 41.5155 20.276C42.795 22.0124 42.8483 24.2716 42.2887 26.5293L42.2852 26.5432L42.1152 27.1894C41.5474 29.4722 40.4238 31.2639 39.0233 32.4243C39.1072 32.5731 39.1845 32.7289 39.2548 32.8913C39.8924 34.3653 39.8794 36.2047 39.3615 38.2378L39.3596 38.2454L39.1916 38.8838C38.6407 41.1144 37.5101 43.005 35.8305 44.3354C34.1446 45.6707 32.0337 46.3401 29.7054 46.3401C27.3919 46.3401 25.2428 45.6674 23.9176 43.9216C22.6022 42.1886 22.5033 39.9281 23.0737 37.6649C23.0738 37.6643 23.074 37.6637 23.0741 37.6631L24.0299 33.8401H28.3044L29.1825 30.3601ZM30.4398 38.2825C30.4391 38.2834 30.4387 38.2839 30.4387 38.2839Z" fill="white"/>
</svg>
