<svg width="64" height="64" viewBox="0 0 64 64" fill="none" xmlns="http://www.w3.org/2000/svg">
<path fill-rule="evenodd" clip-rule="evenodd" d="M24.5757 31.8559L26.149 25.5629C26.7315 23.2327 27.9012 21.273 29.6182 19.8972C31.3391 18.5182 33.4858 17.8259 35.8413 17.8259C38.1121 17.8259 40.2431 18.4786 41.5302 20.2619C42.7866 22.0026 42.8274 24.2631 42.2715 26.5253L42.2696 26.533L42.1676 26.941C41.1106 31.1687 39.0404 34.7629 35.5719 36.5614L35.5589 36.5682L34.6146 37.0404C34.3373 37.1872 34.0874 37.3211 33.8618 37.4439H39.4476L37.3405 45.9999H21.0884L22.749 39.1968C23.2931 37.0202 23.9788 35.3435 25.0655 33.9754C25.7487 33.1154 26.5391 32.4428 27.4209 31.8559H24.5757ZM30.8093 32.2699L30.0273 32.6439C27.0693 34.2079 25.7093 35.6019 24.6893 39.6819L23.6353 43.9999H35.7733L36.8953 39.4439H29.5173L29.6533 38.8659C29.795 38.2861 29.9954 37.8479 30.3468 37.4439C30.9228 36.782 31.9045 36.2121 33.6993 35.2619L34.6513 34.7859C37.4053 33.3579 39.2413 30.3999 40.2273 26.4559L40.3293 26.0479C41.3153 22.0359 39.7173 19.8259 35.8413 19.8259C31.9313 19.8259 29.0753 22.1039 28.0893 26.0479L27.1373 29.8559H31.8973L32.9513 25.7079C33.2233 24.5859 33.9033 23.9739 34.7533 23.9739C35.6033 23.9739 35.9093 24.5859 35.6373 25.7079L34.9913 28.3259C34.7487 29.279 34.4442 29.8877 33.8079 30.458C33.3635 30.8562 32.7573 31.2357 31.8973 31.7008C31.8036 31.7514 31.7069 31.8031 31.6071 31.8559C31.3608 31.9863 31.0955 32.1236 30.8093 32.2699Z" fill="white"/>
</svg>
